<svg width="405.000000" height="92.000000" viewBox="0 0 405 92" fill="none" xmlns="http://www.w3.org/2000/svg" xmlns:xlink="http://www.w3.org/1999/xlink">
	<desc>
			Created with Pixso.
	</desc>
	<defs/>
	<path id="Rectangle 16 copy" d="M0 -0.1L12 -0.1L12 91.9L0 91.9L0 -0.1Z" fill="#F16D7F" fill-opacity="1.000000" fill-rule="evenodd"/>
	<path id="THE BRAND OF LUXERIOUS FASHION" d="M46.11 17.98L56.3 17.98L56.3 12.17L28.71 12.17L28.71 17.98L38.89 17.98L38.89 47L46.11 47L46.11 17.98ZM90.47 47L90.47 12.17L83.21 12.17L83.21 26.96L67.89 26.96L67.89 12.17L60.63 12.17L60.63 47L67.89 47L67.89 32L83.21 32L83.21 47L90.47 47ZM105.01 26.77L105.01 17.82L119.94 17.82L119.94 12.17L97.76 12.17L97.76 47L119.94 47L119.94 41.36L105.01 41.36L105.01 32.21L116.63 32.21L116.63 26.77L105.01 26.77ZM155.06 12.83Q152.58 12.17 149.08 12.17L136.71 12.17L136.71 47L150.2 47Q153.29 47 155.68 46.22Q158.08 45.44 159.7 44.04Q160.87 43.05 161.63 41.82Q161.94 41.31 162.19 40.76Q162.32 40.46 162.44 40.15Q163.04 38.51 163.04 36.65Q163.04 34.18 161.91 32.48Q161.65 32.09 161.33 31.74Q159.63 29.84 156.08 29Q157.67 28.44 158.81 27.66Q159.97 26.86 160.7 25.89Q161.41 24.95 161.75 23.9Q161.77 23.86 161.78 23.82Q161.87 23.54 161.93 23.26Q162.13 22.41 162.13 21.51Q162.13 19.37 161.4 17.65Q161.19 17.13 160.9 16.66Q160.22 15.55 159.12 14.71Q157.55 13.49 155.06 12.83ZM195.66 47L201.29 47Q202.07 47 202.61 46.64Q202.71 46.58 202.81 46.5Q203.42 46.01 203.65 45.41L206.01 38.77L219.88 38.77L222.22 45.41Q222.39 45.81 222.66 46.13Q222.85 46.36 223.1 46.55Q223.69 47 224.63 47L230.22 47L216.63 12.17L209.26 12.17L195.91 46.34L188.22 34.47Q187.74 33.72 187.13 33.18Q186.59 32.69 185.97 32.34Q185.91 32.3 185.85 32.26Q187.59 31.66 188.96 30.67Q190.33 29.69 191.27 28.42Q191.52 28.08 191.75 27.71Q192.34 26.73 192.7 25.6Q193.19 24.05 193.19 22.33Q193.19 20.09 192.42 18.24Q192.21 17.73 191.94 17.27Q191.2 16.01 189.99 15.03Q188.34 13.68 185.74 12.93Q183.15 12.17 179.51 12.17L168.56 12.17L168.56 47L175.77 47L175.77 33.72L178.22 33.72Q179.18 33.72 179.66 34.01Q180.15 34.3 180.56 34.92L187.19 45.6Q187.5 46.12 187.94 46.45Q188.69 47 189.83 47L195.66 47ZM263.27 47L263.27 12.17L256.9 12.17L256.9 32.09Q256.9 32.86 256.95 33.72Q257 34.56 257.1 35.48L239.63 13.3Q239.34 12.94 239.09 12.73Q238.86 12.51 238.59 12.38Q238.33 12.24 238 12.2Q237.69 12.17 237.23 12.17L233.43 12.17L233.43 47L239.8 47L239.8 26.86Q239.8 26.16 239.76 25.35Q239.73 24.53 239.65 23.69L257 45.78Q257.56 46.44 258.14 46.73Q258.71 47 259.55 47L263.27 47ZM300.5 36.6Q301.79 33.39 301.79 29.57Q301.79 25.78 300.5 22.6Q299.52 20.13 297.9 18.2Q297.42 17.62 296.88 17.09Q296.71 16.92 296.53 16.76Q294.3 14.67 291.24 13.47Q287.96 12.17 283.95 12.17L270.56 12.17L270.56 47L283.95 47Q287.96 47 291.24 45.71Q294.43 44.45 296.72 42.26Q296.8 42.18 296.88 42.11Q297.42 41.58 297.9 41Q299.52 39.07 300.5 36.6ZM143.92 27.05L143.92 17.64L149.08 17.64Q150.59 17.64 151.69 17.9Q152.79 18.14 153.5 18.71Q153.7 18.85 153.86 19.02Q154.32 19.5 154.58 20.17Q154.93 21.07 154.93 22.37Q154.93 23.64 154.51 24.54Q154.26 25.09 153.87 25.5Q153.61 25.78 153.29 26Q152.51 26.55 151.33 26.8Q150.15 27.05 148.64 27.05L143.92 27.05ZM182.48 28.22Q181.22 28.66 179.46 28.66L175.77 28.66L175.77 17.64L179.51 17.64Q182.87 17.64 184.51 19.01Q185.01 19.43 185.35 19.94Q186.15 21.13 186.15 22.85Q186.15 24.1 185.76 25.15Q185.6 25.61 185.36 26.01Q185.03 26.55 184.57 26.99Q183.76 27.78 182.48 28.22ZM293.67 24.66Q294.4 26.84 294.4 29.57Q294.4 32.33 293.67 34.51Q292.95 36.69 291.61 38.23Q291.16 38.74 290.65 39.17Q289.62 40.02 288.34 40.56Q286.4 41.36 283.95 41.36L277.81 41.36L277.81 17.82L283.95 17.82Q286.4 17.82 288.34 18.64Q289.67 19.19 290.72 20.08Q291.19 20.49 291.61 20.96Q292.95 22.47 293.67 24.66ZM214.36 23.11L218.12 33.78L207.78 33.78L211.53 23.16Q211.86 22.33 212.23 21.19Q212.6 20.04 212.94 18.69Q213.27 20.02 213.65 21.16Q214.02 22.28 214.36 23.11ZM152.92 41.05Q151.81 41.48 150.08 41.48L143.92 41.48L143.92 31.95L150.04 31.95Q151.67 31.95 152.78 32.26Q153.9 32.57 154.59 33.17Q154.96 33.47 155.22 33.85Q155.45 34.19 155.6 34.6Q155.92 35.43 155.92 36.48Q155.92 37.19 155.77 37.87Q155.72 38.11 155.65 38.35Q155.58 38.59 155.48 38.82Q155.21 39.43 154.71 39.94Q154.04 40.63 152.92 41.05ZM51.79 78.14Q52.64 75.97 52.64 73.42Q52.64 71.73 52.26 70.2Q51.89 68.66 51.16 67.35Q50.69 66.5 50.1 65.75Q49.77 65.35 49.41 64.97Q49.01 64.56 48.58 64.2Q47.88 63.62 47.08 63.17Q45.78 62.42 44.23 62.01Q42.68 61.6 40.92 61.6Q38.3 61.6 36.14 62.5Q34.41 63.2 33.07 64.36Q32.74 64.65 32.43 64.96Q32.19 65.21 31.96 65.48Q30.76 66.89 30.04 68.72Q29.2 70.89 29.2 73.42Q29.2 75.97 30.04 78.14Q30.74 79.93 31.91 81.32Q32.16 81.62 32.43 81.89Q32.69 82.16 32.97 82.41Q34.34 83.62 36.14 84.36Q38.3 85.25 40.92 85.25Q43.57 85.25 45.72 84.36Q47.6 83.59 49 82.3Q49.21 82.1 49.42 81.89Q49.72 81.58 50 81.24Q51.12 79.88 51.79 78.14ZM212.43 78.14Q213.28 75.97 213.28 73.42Q213.28 71.73 212.9 70.2Q212.53 68.66 211.8 67.35Q211.34 66.5 210.74 65.75Q210.41 65.35 210.05 64.97Q209.65 64.56 209.22 64.2Q208.52 63.62 207.72 63.17Q206.42 62.42 204.87 62.01Q203.32 61.6 201.57 61.6Q198.94 61.6 196.78 62.5Q195.05 63.2 193.71 64.36Q193.38 64.65 193.07 64.96Q192.83 65.21 192.6 65.48Q191.4 66.89 190.68 68.72Q189.84 70.89 189.84 73.42Q189.84 75.97 190.68 78.14Q191.38 79.93 192.56 81.32Q192.8 81.62 193.07 81.89Q193.33 82.16 193.61 82.41Q194.98 83.62 196.78 84.36Q198.94 85.25 201.57 85.25Q204.21 85.25 206.36 84.36Q208.24 83.59 209.64 82.3Q209.85 82.1 210.06 81.89Q210.36 81.58 210.64 81.24Q211.76 79.88 212.43 78.14ZM252.74 66.56Q252.95 66.4 253.15 66.07L254.22 64.03Q253 62.89 251.27 62.25Q249.55 61.6 247.5 61.6Q245.67 61.6 244.27 62.17Q242.86 62.72 241.9 63.65Q241.28 64.25 240.85 64.97Q240.61 65.36 240.43 65.78Q240.11 66.56 239.99 67.37Q239.93 67.8 239.93 68.25Q239.93 69.82 240.38 70.91Q240.85 71.99 241.6 72.71Q241.81 72.91 242.04 73.09Q242.62 73.55 243.31 73.88Q244.27 74.32 245.26 74.64Q246.25 74.96 247.21 75.24Q248.17 75.51 248.92 75.9Q249.67 76.29 250.13 76.87Q250.15 76.9 250.17 76.93Q250.59 77.49 250.59 78.35Q250.59 79.63 249.98 80.44Q249.8 80.67 249.58 80.86Q248.57 81.73 246.73 81.73Q245.53 81.73 244.67 81.4Q243.82 81.07 243.18 80.67Q242.54 80.28 242.07 79.95Q241.61 79.62 241.21 79.62Q241.11 79.62 241.01 79.64Q240.83 79.68 240.67 79.78Q240.41 79.92 240.25 80.14L238.99 82.21Q239.66 82.9 240.52 83.46Q241.38 84.02 242.37 84.42Q243.35 84.82 244.42 85.03Q244.93 85.14 245.43 85.19Q246.02 85.25 246.6 85.25Q248.52 85.25 250.01 84.67Q251.5 84.08 252.53 83.07Q252.97 82.63 253.32 82.14Q253.79 81.47 254.1 80.68Q254.12 80.63 254.14 80.58Q254.63 79.25 254.63 77.75Q254.63 76.31 254.17 75.3Q253.73 74.32 253.01 73.64Q252.99 73.62 252.97 73.6Q252.9 73.53 252.82 73.46Q252.13 72.86 251.26 72.45Q250.72 72.19 250.16 71.97Q249.73 71.79 249.29 71.64Q248.28 71.3 247.32 71Q246.36 70.69 245.61 70.31Q244.86 69.92 244.4 69.39Q244.31 69.28 244.24 69.16Q243.95 68.68 243.95 68.02Q243.95 67.38 244.17 66.85Q244.26 66.61 244.41 66.41Q244.59 66.14 244.85 65.92Q245.31 65.54 245.98 65.32Q246.65 65.1 247.55 65.1Q248.54 65.1 249.27 65.35Q249.99 65.6 250.53 65.91Q251.08 66.21 251.47 66.46Q251.87 66.71 252.2 66.71Q252.52 66.71 252.74 66.56ZM60.75 72.13L60.75 65.28L71.02 65.28L71.02 61.86L56.43 61.86L56.43 85L60.75 85L60.75 75.57L69.42 75.57L69.42 72.13L60.75 72.13ZM95.1 85L95.1 81.44L85.85 81.44L85.85 61.86L81.55 61.86L81.55 85L95.1 85ZM109.07 81.11Q108.09 81.53 106.85 81.53Q105.6 81.53 104.61 81.11Q103.85 80.79 103.28 80.26Q103.1 80.11 102.95 79.93Q102.27 79.17 101.91 78.1Q101.55 77.03 101.55 75.7L101.55 61.86L97.24 61.86L97.24 75.71Q97.24 77.78 97.91 79.53Q98.46 80.98 99.39 82.1Q99.59 82.33 99.81 82.56Q99.88 82.63 99.95 82.7Q101.15 83.86 102.82 84.54Q104.6 85.25 106.85 85.25Q109.06 85.25 110.84 84.54Q112.57 83.84 113.78 82.63Q113.82 82.59 113.85 82.56Q114.1 82.31 114.32 82.03Q115.23 80.94 115.76 79.53Q116.42 77.78 116.42 75.71L116.42 61.86L112.13 61.86L112.13 75.71Q112.13 77.04 111.76 78.12Q111.4 79.19 110.73 79.94Q110.61 80.07 110.48 80.19Q109.88 80.76 109.07 81.11ZM135.8 85L140.09 85L132.44 72.92L139.89 61.86L135.77 61.86Q135.45 61.86 135.24 62Q135.03 62.14 134.86 62.45L130.03 70.05Q129.8 70.45 129.64 70.85L124.38 62.37Q124.2 62.1 124 61.98Q123.8 61.86 123.36 61.86L119.07 61.86L126.44 73.09L118.76 85L122.78 85Q123.1 85 123.32 84.85Q123.38 84.81 123.43 84.77Q123.68 84.53 123.86 84.26L129 76.07Q129.18 75.78 129.31 75.38L134.67 84.26Q134.68 84.28 134.69 84.3Q134.84 84.56 135.09 84.78L135.09 84.78Q135.36 85 135.8 85ZM147.07 71.7L147.07 65.28L157.34 65.28L157.34 61.86L142.75 61.86L142.75 85L157.34 85L157.34 81.56L147.07 81.56L147.07 75.01L155.16 75.01L155.16 71.7L147.07 71.7ZM175.32 85L179.21 85L173.42 76.45Q173.13 76 172.78 75.67Q172.68 75.58 172.58 75.5Q172.31 75.28 172.01 75.1Q173.23 74.74 174.18 74.1Q175.13 73.46 175.78 72.61Q175.97 72.36 176.14 72.09Q176.53 71.45 176.77 70.72Q177.12 69.68 177.12 68.52Q177.12 67.04 176.6 65.82Q176.45 65.45 176.25 65.12Q175.77 64.33 175.01 63.72Q173.93 62.84 172.24 62.35Q170.56 61.86 168.2 61.86L161.15 61.86L161.15 85L165.45 85L165.45 75.96L167.29 75.96Q167.93 75.96 168.26 76.14Q168.59 76.31 168.86 76.72L173.72 84.13Q173.92 84.48 174.22 84.69Q174.67 85 175.32 85ZM181.73 85L186.05 85L186.05 61.86L181.73 61.86L181.73 85ZM228.61 81.11Q227.62 81.53 226.38 81.53Q225.13 81.53 224.15 81.11Q223.39 80.79 222.81 80.26Q222.64 80.11 222.48 79.93Q221.8 79.17 221.44 78.1Q221.09 77.03 221.09 75.7L221.09 61.86L216.78 61.86L216.78 75.71Q216.78 77.78 217.44 79.53Q217.99 80.98 218.93 82.1Q219.13 82.33 219.34 82.56Q219.41 82.63 219.48 82.7Q220.68 83.86 222.36 84.54Q224.14 85.25 226.38 85.25Q228.6 85.25 230.37 84.54Q232.1 83.84 233.32 82.63Q233.35 82.59 233.39 82.56Q233.64 82.31 233.86 82.03Q234.76 80.94 235.3 79.53Q235.96 77.78 235.96 75.71L235.96 61.86L231.66 61.86L231.66 75.71Q231.66 77.04 231.3 78.12Q230.94 79.19 230.26 79.94Q230.15 80.07 230.02 80.19Q229.42 80.76 228.61 81.11ZM170.26 72.57Q169.35 72.87 168.14 72.87L165.45 72.87L165.45 65.19L168.2 65.19Q170.59 65.19 171.74 66.14Q172.07 66.4 172.31 66.73Q172.91 67.57 172.91 68.84Q172.91 69.71 172.62 70.46Q172.49 70.79 172.29 71.09Q172.06 71.44 171.74 71.73Q171.17 72.26 170.26 72.57ZM47.72 70.02Q48.24 71.53 48.24 73.42Q48.24 75.33 47.72 76.85Q47.21 78.35 46.27 79.4Q45.98 79.72 45.65 80Q44.91 80.62 43.97 81.01Q42.62 81.57 40.92 81.57Q39.23 81.57 37.88 81.01Q36.96 80.63 36.23 80.03Q35.88 79.74 35.57 79.4Q34.62 78.35 34.1 76.85Q33.6 75.33 33.6 73.42Q33.6 71.53 34.1 70.02Q34.62 68.5 35.57 67.45Q35.94 67.04 36.36 66.71Q37.04 66.17 37.88 65.83Q39.23 65.27 40.92 65.27Q42.62 65.27 43.97 65.83Q44.83 66.18 45.52 66.74Q45.92 67.06 46.27 67.45Q47.21 68.5 47.72 70.02ZM208.36 70.02Q208.88 71.53 208.88 73.42Q208.88 75.33 208.36 76.85Q207.85 78.35 206.91 79.4Q206.62 79.72 206.29 80Q205.55 80.62 204.61 81.01Q203.26 81.57 201.57 81.57Q199.87 81.57 198.52 81.01Q197.6 80.63 196.87 80.03Q196.52 79.74 196.21 79.4Q195.26 78.35 194.74 76.85Q194.24 75.33 194.24 73.42Q194.24 71.53 194.74 70.02Q195.26 68.5 196.21 67.45Q196.58 67.04 197 66.71Q197.69 66.17 198.52 65.83Q199.87 65.27 201.57 65.27Q203.26 65.27 204.61 65.83Q205.47 66.18 206.16 66.74Q206.56 67.06 206.91 67.45Q207.85 68.5 208.36 70.02Z" fill="#222222" fill-opacity="1.000000" fill-rule="evenodd"/>
	<path id="THE BRAND OF LUXERIOUS FASHION" d="M316.5 66.56Q316.71 66.4 316.91 66.07L317.98 64.03Q316.76 62.89 315.03 62.25Q313.31 61.6 311.26 61.6Q309.43 61.6 308.03 62.17Q306.62 62.72 305.66 63.65Q305.04 64.25 304.61 64.97Q304.37 65.36 304.19 65.78Q303.87 66.56 303.75 67.37Q303.69 67.8 303.69 68.25Q303.69 69.82 304.14 70.91Q304.6 71.99 305.35 72.71Q305.57 72.91 305.8 73.09Q306.38 73.55 307.07 73.88Q308.03 74.32 309.02 74.64Q310.01 74.96 310.97 75.24Q311.93 75.51 312.68 75.9Q313.43 76.29 313.89 76.87Q313.91 76.9 313.93 76.93Q314.35 77.49 314.35 78.35Q314.35 79.63 313.74 80.44Q313.56 80.67 313.34 80.86Q312.33 81.73 310.49 81.73Q309.29 81.73 308.43 81.4Q307.58 81.07 306.94 80.67Q306.3 80.28 305.83 79.95Q305.37 79.62 304.97 79.62Q304.87 79.62 304.77 79.64Q304.59 79.68 304.43 79.78Q304.17 79.92 304.01 80.14L302.75 82.21Q303.42 82.9 304.28 83.46Q305.14 84.02 306.13 84.42Q307.11 84.82 308.18 85.03Q308.69 85.14 309.19 85.19Q309.78 85.25 310.36 85.25Q312.28 85.25 313.77 84.67Q315.26 84.08 316.29 83.07Q316.73 82.63 317.08 82.14Q317.55 81.47 317.85 80.68Q317.88 80.63 317.9 80.58Q318.39 79.25 318.39 77.75Q318.39 76.31 317.93 75.3Q317.49 74.32 316.77 73.64Q316.75 73.62 316.73 73.6Q316.66 73.53 316.58 73.46Q315.89 72.86 315.02 72.45Q314.48 72.19 313.92 71.97Q313.49 71.79 313.05 71.64Q312.04 71.3 311.08 71Q310.12 70.69 309.37 70.31Q308.62 69.92 308.16 69.39Q308.07 69.28 308 69.16Q307.71 68.68 307.71 68.02Q307.71 67.38 307.93 66.85Q308.02 66.61 308.17 66.41Q308.35 66.14 308.6 65.92Q309.07 65.54 309.74 65.32Q310.41 65.1 311.31 65.1Q312.3 65.1 313.03 65.35Q313.75 65.6 314.29 65.91Q314.84 66.21 315.23 66.46Q315.63 66.71 315.96 66.71Q316.28 66.71 316.5 66.56ZM377.5 78.14Q378.35 75.97 378.35 73.42Q378.35 71.73 377.97 70.2Q377.6 68.66 376.87 67.35Q376.41 66.5 375.81 65.75Q375.49 65.35 375.12 64.97Q374.73 64.56 374.29 64.2Q373.59 63.62 372.79 63.17Q371.5 62.42 369.94 62.01Q368.4 61.6 366.64 61.6Q364.01 61.6 361.85 62.5Q360.12 63.2 358.79 64.36Q358.45 64.65 358.15 64.96Q357.9 65.21 357.68 65.48Q356.47 66.89 355.75 68.72Q354.91 70.89 354.91 73.42Q354.91 75.97 355.75 78.14Q356.46 79.93 357.63 81.32Q357.88 81.62 358.15 81.89Q358.41 82.16 358.68 82.41Q360.06 83.62 361.85 84.36Q364.01 85.25 366.64 85.25Q369.28 85.25 371.43 84.36Q373.31 83.59 374.71 82.3Q374.93 82.1 375.13 81.89Q375.44 81.58 375.72 81.24Q376.84 79.88 377.5 78.14ZM270.48 72.13L270.48 65.28L280.75 65.28L280.75 61.86L266.16 61.86L266.16 85L270.48 85L270.48 75.57L279.15 75.57L279.15 72.13L270.48 72.13ZM298.86 85L302.19 85L293.1 61.86L288.72 61.86L279.61 85L282.98 85Q283.38 85 283.69 84.82Q283.79 84.76 283.88 84.69Q284.25 84.39 284.38 84.02L286.11 79.3L295.69 79.3L297.42 84.02Q297.5 84.22 297.63 84.39Q297.76 84.57 297.94 84.71Q297.97 84.74 298 84.75Q298.35 85 298.86 85ZM341.64 85L341.64 61.86L337.32 61.86L337.32 71.81L326.46 71.81L326.46 61.86L322.14 61.86L322.14 85L326.46 85L326.46 74.89L337.32 74.89L337.32 85L341.64 85ZM346.8 85L351.12 85L351.12 61.86L346.8 61.86L346.8 85ZM401.64 85L401.64 61.86L397.85 61.86L397.85 75.92Q397.85 76.39 397.88 76.93Q397.92 77.47 397.96 78.03L385.84 62.55Q385.66 62.32 385.51 62.19Q385.37 62.05 385.22 61.98Q385.07 61.91 384.87 61.89Q384.67 61.86 384.39 61.86L382.14 61.86L382.14 85L385.93 85L385.93 70.78Q385.93 69.89 385.84 68.84L397.92 84.26Q398.24 84.66 398.58 84.83Q398.92 85 399.44 85L401.64 85ZM373.43 70.02Q373.95 71.53 373.95 73.42Q373.95 75.33 373.43 76.85Q372.93 78.35 371.98 79.4Q371.69 79.72 371.36 80Q370.62 80.62 369.68 81.01Q368.33 81.57 366.64 81.57Q364.94 81.57 363.59 81.01Q362.68 80.63 361.94 80.03Q361.59 79.74 361.29 79.4Q360.33 78.35 359.82 76.85Q359.31 75.33 359.31 73.42Q359.31 71.53 359.82 70.02Q360.33 68.5 361.29 67.45Q361.65 67.04 362.08 66.71Q362.76 66.17 363.59 65.83Q364.94 65.27 366.64 65.27Q368.33 65.27 369.68 65.83Q370.54 66.18 371.23 66.74Q371.63 67.06 371.98 67.45Q372.93 68.5 373.43 70.02ZM291.77 68.57L294.58 76.26L287.23 76.26L290.03 68.6Q290.23 68.07 290.46 67.35Q290.69 66.64 290.89 65.82Q291.12 66.64 291.33 67.35Q291.56 68.05 291.77 68.57Z" fill="#F16D7F" fill-opacity="1.000000" fill-rule="evenodd"/>
</svg>
